<?xml version="1.0" encoding="utf-8"?>
<!-- Generator: Adobe Illustrator 14.0.0, SVG Export Plug-In  -->
<!DOCTYPE svg PUBLIC "-//W3C//DTD SVG 1.1//EN" "http://www.w3.org/Graphics/SVG/1.1/DTD/svg11.dtd" [
	<!ENTITY ns_flows "http://ns.adobe.com/Flows/1.0/">
]>
<svg version="1.1"
	 xmlns="http://www.w3.org/2000/svg" xmlns:xlink="http://www.w3.org/1999/xlink" xmlns:a="http://ns.adobe.com/AdobeSVGViewerExtensions/3.0/"
	 x="0px" y="0px" width="120px" height="35px" viewBox="0 -0.021 120 35" enable-background="new 0 -0.021 120 35"
	 xml:space="preserve">
<defs>
</defs>
<path fill="#BDBAFA" d="M0,10.194v0.088l20.205,9.492l20.277-9.524v-0.024L20.205,0.702L0,10.194z M7.284,10.238l12.922-6.07
	l12.922,6.07l-12.923,6.07L7.284,10.238L7.284,10.238z M20.205,23.461L0,14.111v3.458l20.205,9.372l20.277-9.404v-3.458
	L20.205,23.461L20.205,23.461z M20.205,30.475L0,21.124v3.459l20.205,9.373l20.277-9.405v-3.458L20.205,30.475L20.205,30.475z"/>
<defs>
	<filter id="Adobe_OpacityMaskFilter" filterUnits="userSpaceOnUse" x="52.058" y="0" width="67.924" height="34.909">
		<feColorMatrix  type="matrix" values="1 0 0 0 0  0 1 0 0 0  0 0 1 0 0  0 0 0 1 0"/>
	</filter>
</defs>
<mask maskUnits="userSpaceOnUse" x="52.058" y="0" width="67.924" height="34.909" id="b_1_">
	<g filter="url(#Adobe_OpacityMaskFilter)">
		<path id="a_1_" fill="#FFFFFF" d="M52.058,0h67.924v34.909H52.058V0z"/>
	</g>
</mask>
<path mask="url(#b_1_)" fill="#FFFFFF" d="M115.344,17.439c0.013-1.493-0.547-2.935-1.562-4.03c-0.478-0.511-1.052-0.922-1.69-1.208
	c-0.648-0.292-1.352-0.44-2.062-0.436c-0.729,0-1.416,0.145-2.061,0.436c-0.639,0.286-1.213,0.696-1.691,1.208
	c-1.015,1.095-1.573,2.537-1.562,4.03c-0.012,1.493,0.547,2.935,1.562,4.029c0.479,0.511,1.053,0.922,1.69,1.208
	c0.646,0.29,1.332,0.435,2.062,0.435c0.73,0,1.418-0.146,2.062-0.435c0.639-0.286,1.214-0.697,1.691-1.208
	C114.797,20.374,115.356,18.931,115.344,17.439L115.344,17.439z M119.982,17.439c0,1.396-0.258,2.69-0.773,3.883
	c-0.495,1.163-1.218,2.216-2.126,3.095c-0.901,0.871-1.96,1.559-3.172,2.063c-1.23,0.509-2.55,0.766-3.882,0.757
	c-1.325,0.01-2.64-0.248-3.864-0.757c-1.175-0.487-2.245-1.192-3.156-2.08c-0.905-0.887-1.628-1.943-2.126-3.11
	c-0.515-1.191-0.773-2.476-0.773-3.852c-0.008-1.314,0.262-2.616,0.791-3.82c0.509-1.168,1.235-2.229,2.141-3.126
	c0.907-0.895,1.979-1.606,3.156-2.095c1.214-0.507,2.518-0.765,3.832-0.757c1.375,0,2.669,0.252,3.881,0.757
	c1.178,0.482,2.254,1.182,3.173,2.063c0.911,0.883,1.634,1.941,2.126,3.11C119.729,14.793,119.991,16.109,119.982,17.439
	L119.982,17.439z M98.5,26.657c-0.397,0.184-0.812,0.324-1.24,0.42c-0.462,0.107-0.939,0.16-1.433,0.16
	c-0.67,0.002-1.337-0.09-1.979-0.273c-0.612-0.171-1.179-0.473-1.66-0.887c-0.473-0.408-0.849-0.939-1.127-1.596
	c-0.279-0.654-0.418-1.445-0.418-2.369V0h4.733v21.306c0,0.774,0.156,1.306,0.467,1.596c0.312,0.29,0.683,0.435,1.111,0.435
	c0.537,0,1.052-0.16,1.546-0.482V26.657z M88.548,8.091l-8.374,22.144c-0.622,1.655-1.438,2.848-2.447,3.578
	s-2.211,1.096-3.606,1.096c-0.489-0.002-0.978-0.067-1.45-0.193l-1.546-4.319c0.365,0.172,0.741,0.306,1.128,0.403
	c0.357,0.093,0.726,0.142,1.096,0.145c0.697,0.008,1.385-0.164,1.995-0.5c0.603-0.333,1.063-0.949,1.386-1.853l0.644-1.87
	l-7.183-18.63h5.059l4.283,11.989l4.025-11.989H88.548z M69.062,5.287H56.953v5.995h11.949v4.062h-11.95v11.409h-4.894V1.001h17.004
	V5.287L69.062,5.287z"/>
</svg>
